<svg width="24" height="24" viewBox="0 0 24 24" fill="none" xmlns="http://www.w3.org/2000/svg">
<path d="M18.4286 9.42858C20.7955 9.42858 22.7143 7.50979 22.7143 5.14286C22.7143 2.77593 20.7955 0.857147 18.4286 0.857147C16.0616 0.857147 14.1429 2.77593 14.1429 5.14286C14.1429 7.50979 16.0616 9.42858 18.4286 9.42858Z" fill="#F3012D"/>
<path d="M17.0274 13.7143V16.3433C17.0274 17.0138 17.2937 17.6568 17.7679 18.131C18.2419 18.605 19.0438 18.8714 19.7143 18.8714H0.857147C1.52765 18.8714 2.32951 18.605 2.80363 18.131C3.27774 17.6568 3.5441 17.0138 3.5441 16.3433L3.54408 10.1702C3.54408 8.38224 4.25436 6.66747 5.51867 5.40317C6.78297 4.13887 8.49774 3.42859 10.2857 3.42859" stroke="black" stroke-linecap="round" stroke-linejoin="round"/>
<path d="M8.57144 23.1429H12" stroke="black" stroke-linecap="round" stroke-linejoin="round"/>
</svg>
