<svg width="320" height="54" viewBox="0 0 320 54" fill="none" xmlns="http://www.w3.org/2000/svg">
<g clip-path="url(#clip0_606_1854)">
<path d="M61.1429 27.4896V22.981C61.1563 22.0948 61.3445 21.2199 61.6966 20.4065C62.0486 19.5931 62.5578 18.8572 63.1948 18.2409C63.8318 17.6246 64.5841 17.14 65.4087 16.815C66.2333 16.49 67.1139 16.3308 68.0001 16.3467C68.8863 16.3308 69.7669 16.49 70.5915 16.815C71.4161 17.14 72.1684 17.6246 72.8054 18.2409C73.4424 18.8572 73.9516 19.5931 74.3037 20.4065C74.6556 21.2199 74.8439 22.0948 74.8572 22.981V27.4896" stroke="#2A2A2C" stroke-width="1.5" stroke-linecap="round" stroke-linejoin="round"/>
<path d="M58.5715 24.9181H60.2857C60.5131 24.9181 60.7311 25.0084 60.8918 25.1692C61.0526 25.3299 61.1429 25.5479 61.1429 25.7752V30.9181C61.1429 31.1454 61.0526 31.3635 60.8918 31.5242C60.7311 31.6849 60.5131 31.7752 60.2857 31.7752H58.5715C58.1168 31.7752 57.6808 31.5946 57.3593 31.2731C57.0378 30.9517 56.8572 30.5156 56.8572 30.061V26.6324C56.8572 26.1777 57.0378 25.7417 57.3593 25.4202C57.6808 25.0987 58.1168 24.9181 58.5715 24.9181Z" stroke="#2A2A2C" stroke-width="1.5" stroke-linecap="round" stroke-linejoin="round"/>
<path d="M77.4286 31.7752H75.7143C75.487 31.7752 75.2689 31.6849 75.1081 31.5242C74.9475 31.3635 74.8572 31.1454 74.8572 30.9181V25.7752C74.8572 25.5479 74.9475 25.3299 75.1081 25.1692C75.2689 25.0084 75.487 24.9181 75.7143 24.9181H77.4286C77.8832 24.9181 78.3193 25.0987 78.6408 25.4202C78.9622 25.7417 79.1429 26.1777 79.1429 26.6324V30.061C79.1429 30.5156 78.9622 30.9517 78.6408 31.2731C78.3193 31.5946 77.8832 31.7752 77.4286 31.7752Z" stroke="#2A2A2C" stroke-width="1.5" stroke-linecap="round" stroke-linejoin="round"/>
<path d="M71.4286 36.4895C72.3379 36.4895 73.2099 36.1283 73.8529 35.4853C74.496 34.8423 74.8572 33.9702 74.8572 33.061V29.2038" stroke="#2A2A2C" stroke-width="1.5" stroke-linecap="round" stroke-linejoin="round"/>
<path d="M71.4286 36.4895C71.4286 37.0578 71.2028 37.603 70.8009 38.0048C70.3991 38.4066 69.854 38.6324 69.2857 38.6324H66.7143C66.1459 38.6324 65.6009 38.4066 65.199 38.0048C64.7972 37.603 64.5714 37.0578 64.5714 36.4895C64.5714 35.9212 64.7972 35.3761 65.199 34.9743C65.6009 34.5724 66.1459 34.3467 66.7143 34.3467H69.2857C69.854 34.3467 70.3991 34.5724 70.8009 34.9743C71.2028 35.3761 71.4286 35.9212 71.4286 36.4895Z" stroke="#2A2A2C" stroke-width="1.5" stroke-linecap="round" stroke-linejoin="round"/>
</g>
<path d="M97.95 21.2495H99.85V26.7395H105.83V21.2495H107.72V33.9895H105.83V28.3895H99.85V33.9895H97.95V21.2495ZM115.091 34.2495C114.265 34.2495 113.518 34.0362 112.851 33.6095C112.185 33.1829 111.655 32.5895 111.261 31.8295C110.875 31.0695 110.681 30.1895 110.681 29.1895C110.681 28.1295 110.875 27.2229 111.261 26.4695C111.648 25.7095 112.175 25.1262 112.841 24.7195C113.508 24.3129 114.258 24.1095 115.091 24.1095C115.838 24.1095 116.478 24.2629 117.011 24.5695C117.545 24.8695 117.975 25.2762 118.301 25.7895C118.628 26.2962 118.851 26.8729 118.971 27.5195C119.098 28.1662 119.121 28.8329 119.041 29.5195H112.201V28.4195H117.741L117.281 28.7195C117.301 28.3595 117.281 27.9995 117.221 27.6395C117.168 27.2795 117.061 26.9495 116.901 26.6495C116.741 26.3429 116.515 26.0995 116.221 25.9195C115.935 25.7329 115.568 25.6395 115.121 25.6395C114.561 25.6395 114.091 25.7795 113.711 26.0595C113.338 26.3395 113.055 26.7162 112.861 27.1895C112.668 27.6562 112.571 28.1695 112.571 28.7295V29.4995C112.571 30.1195 112.665 30.6695 112.851 31.1495C113.038 31.6295 113.315 32.0095 113.681 32.2895C114.055 32.5629 114.525 32.6995 115.091 32.6995C115.645 32.6995 116.101 32.5695 116.461 32.3095C116.828 32.0495 117.055 31.6595 117.141 31.1395H119.081C118.981 31.7662 118.751 32.3129 118.391 32.7795C118.031 33.2462 117.568 33.6095 117.001 33.8695C116.441 34.1229 115.805 34.2495 115.091 34.2495ZM122.052 33.9895V20.3195H123.952V33.9895H122.052ZM132.412 34.2495C131.712 34.2495 131.106 34.0929 130.592 33.7795C130.079 33.4595 129.686 32.9929 129.412 32.3795C129.146 31.7595 129.012 30.9929 129.012 30.0795H129.752C129.752 30.6062 129.866 31.0529 130.092 31.4195C130.319 31.7795 130.616 32.0562 130.982 32.2495C131.356 32.4362 131.752 32.5295 132.172 32.5295C132.612 32.5295 133.039 32.4062 133.452 32.1595C133.872 31.9062 134.216 31.5295 134.482 31.0295C134.749 30.5295 134.882 29.9095 134.882 29.1695C134.882 28.4629 134.762 27.8595 134.522 27.3595C134.289 26.8595 133.969 26.4762 133.562 26.2095C133.156 25.9429 132.699 25.8095 132.192 25.8095C131.766 25.8095 131.366 25.9129 130.992 26.1195C130.619 26.3195 130.319 26.6162 130.092 27.0095C129.866 27.3962 129.752 27.8695 129.752 28.4295H129.012C129.012 27.4629 129.166 26.6595 129.472 26.0195C129.786 25.3795 130.206 24.9029 130.732 24.5895C131.259 24.2695 131.842 24.1095 132.482 24.1095C133.236 24.1095 133.942 24.3129 134.602 24.7195C135.262 25.1195 135.796 25.6962 136.202 26.4495C136.616 27.2029 136.822 28.1095 136.822 29.1695C136.822 30.2295 136.616 31.1395 136.202 31.8995C135.789 32.6595 135.246 33.2429 134.572 33.6495C133.906 34.0495 133.186 34.2495 132.412 34.2495ZM127.852 38.7095V24.3695H129.422L129.752 26.6795V38.7095H127.852ZM149.169 34.2495C148.043 34.2495 147.069 33.9762 146.249 33.4295C145.436 32.8762 144.806 32.0995 144.359 31.0995C143.913 30.0929 143.689 28.9129 143.689 27.5595C143.689 26.1329 143.926 24.9362 144.399 23.9695C144.873 22.9962 145.523 22.2629 146.349 21.7695C147.183 21.2695 148.123 21.0195 149.169 21.0195C150.576 21.0195 151.696 21.3695 152.529 22.0695C153.363 22.7629 153.916 23.6662 154.189 24.7795L152.159 25.1695C151.919 24.4295 151.539 23.8395 151.019 23.3995C150.499 22.9529 149.883 22.7295 149.169 22.7295C148.543 22.7295 147.969 22.9095 147.449 23.2695C146.929 23.6295 146.513 24.1695 146.199 24.8895C145.886 25.6029 145.729 26.4929 145.729 27.5595C145.729 28.5462 145.859 29.4129 146.119 30.1595C146.379 30.8995 146.763 31.4762 147.269 31.8895C147.776 32.3029 148.409 32.5095 149.169 32.5095C150.096 32.5095 150.826 32.2629 151.359 31.7695C151.893 31.2695 152.159 30.6195 152.159 29.8195H154.209C154.209 30.7529 153.999 31.5495 153.579 32.2095C153.166 32.8629 152.583 33.3662 151.829 33.7195C151.076 34.0729 150.189 34.2495 149.169 34.2495ZM160.521 34.2495C159.694 34.2495 158.948 34.0362 158.281 33.6095C157.614 33.1829 157.084 32.5895 156.691 31.8295C156.304 31.0695 156.111 30.1895 156.111 29.1895C156.111 28.1295 156.304 27.2229 156.691 26.4695C157.078 25.7095 157.604 25.1262 158.271 24.7195C158.938 24.3129 159.688 24.1095 160.521 24.1095C161.268 24.1095 161.908 24.2629 162.441 24.5695C162.974 24.8695 163.404 25.2762 163.731 25.7895C164.058 26.2962 164.281 26.8729 164.401 27.5195C164.528 28.1662 164.551 28.8329 164.471 29.5195H157.631V28.4195H163.171L162.711 28.7195C162.731 28.3595 162.711 27.9995 162.651 27.6395C162.598 27.2795 162.491 26.9495 162.331 26.6495C162.171 26.3429 161.944 26.0995 161.651 25.9195C161.364 25.7329 160.998 25.6395 160.551 25.6395C159.991 25.6395 159.521 25.7795 159.141 26.0595C158.768 26.3395 158.484 26.7162 158.291 27.1895C158.098 27.6562 158.001 28.1695 158.001 28.7295V29.4995C158.001 30.1195 158.094 30.6695 158.281 31.1495C158.468 31.6295 158.744 32.0095 159.111 32.2895C159.484 32.5629 159.954 32.6995 160.521 32.6995C161.074 32.6995 161.531 32.5695 161.891 32.3095C162.258 32.0495 162.484 31.6595 162.571 31.1395H164.511C164.411 31.7662 164.181 32.3129 163.821 32.7795C163.461 33.2462 162.998 33.6095 162.431 33.8695C161.871 34.1229 161.234 34.2495 160.521 34.2495ZM174.221 33.9895V28.3495C174.221 27.5162 174.021 26.8862 173.621 26.4595C173.228 26.0262 172.695 25.8095 172.021 25.8095C171.488 25.8095 171.021 25.9562 170.621 26.2495C170.228 26.5362 169.921 26.9595 169.701 27.5195C169.488 28.0729 169.381 28.7495 169.381 29.5495H168.701C168.701 28.3695 168.851 27.3762 169.151 26.5695C169.458 25.7629 169.895 25.1529 170.461 24.7395C171.028 24.3195 171.708 24.1095 172.501 24.1095C173.275 24.1095 173.928 24.2829 174.461 24.6295C175.001 24.9762 175.411 25.4695 175.691 26.1095C175.971 26.7429 176.111 27.4895 176.111 28.3495V33.9895H174.221ZM167.481 33.9895V24.3695H169.131L169.381 26.4495V33.9895H167.481ZM182.817 34.2495C182.271 34.2495 181.777 34.1462 181.337 33.9395C180.897 33.7329 180.547 33.4229 180.287 33.0095C180.034 32.5895 179.907 32.0629 179.907 31.4295V21.7495H181.797V31.3695C181.797 32.2762 182.221 32.7295 183.067 32.7295C183.327 32.7295 183.581 32.7029 183.827 32.6495C184.074 32.5895 184.354 32.5029 184.667 32.3895L184.937 33.7395C184.584 33.8862 184.234 34.0062 183.887 34.0995C183.547 34.1995 183.191 34.2495 182.817 34.2495ZM178.437 25.6595V24.3695H184.647V25.6595H178.437ZM187.403 33.9895V24.3395H189.303V33.9895H187.403ZM188.783 29.6895C188.783 28.4562 188.91 27.4329 189.163 26.6195C189.423 25.7995 189.783 25.1895 190.243 24.7895C190.71 24.3895 191.256 24.1895 191.883 24.1895C192.07 24.1895 192.243 24.2029 192.403 24.2295C192.57 24.2562 192.733 24.2929 192.893 24.3395L192.823 26.2295C192.643 26.1829 192.446 26.1429 192.233 26.1095C192.026 26.0695 191.836 26.0495 191.663 26.0495C191.116 26.0495 190.67 26.1962 190.323 26.4895C189.976 26.7762 189.72 27.1929 189.553 27.7395C189.386 28.2795 189.303 28.9295 189.303 29.6895H188.783ZM198.334 34.2495C197.507 34.2495 196.76 34.0362 196.094 33.6095C195.427 33.1829 194.897 32.5895 194.504 31.8295C194.117 31.0695 193.924 30.1895 193.924 29.1895C193.924 28.1295 194.117 27.2229 194.504 26.4695C194.89 25.7095 195.417 25.1262 196.084 24.7195C196.75 24.3129 197.5 24.1095 198.334 24.1095C199.08 24.1095 199.72 24.2629 200.254 24.5695C200.787 24.8695 201.217 25.2762 201.544 25.7895C201.87 26.2962 202.094 26.8729 202.214 27.5195C202.34 28.1662 202.364 28.8329 202.284 29.5195H195.444V28.4195H200.984L200.524 28.7195C200.544 28.3595 200.524 27.9995 200.464 27.6395C200.41 27.2795 200.304 26.9495 200.144 26.6495C199.984 26.3429 199.757 26.0995 199.464 25.9195C199.177 25.7329 198.81 25.6395 198.364 25.6395C197.804 25.6395 197.334 25.7795 196.954 26.0595C196.58 26.3395 196.297 26.7162 196.104 27.1895C195.91 27.6562 195.814 28.1695 195.814 28.7295V29.4995C195.814 30.1195 195.907 30.6695 196.094 31.1495C196.28 31.6295 196.557 32.0095 196.924 32.2895C197.297 32.5629 197.767 32.6995 198.334 32.6995C198.887 32.6995 199.344 32.5695 199.704 32.3095C200.07 32.0495 200.297 31.6595 200.384 31.1395H202.324C202.224 31.7662 201.994 32.3129 201.634 32.7795C201.274 33.2462 200.81 33.6095 200.244 33.8695C199.684 34.1229 199.047 34.2495 198.334 34.2495Z" fill="#505153"/>
<defs>
<clipPath id="clip0_606_1854">
<rect width="24" height="24" fill="white" transform="translate(56 15.4895)"/>
</clipPath>
</defs>
</svg>
