<svg width="577" height="53" viewBox="0 0 577 53" fill="none" xmlns="http://www.w3.org/2000/svg">
<rect x="0.25" y="0.25" width="576.5" height="52.5" rx="23.75" fill="#FCFCFC"/>
<rect x="0.25" y="0.25" width="576.5" height="52.5" rx="23.75" stroke="#828282" stroke-width="0.5"/>
<g clip-path="url(#clip0_384_3916)">
<path d="M30 31C33.0376 31 35.5 28.5376 35.5 25.5C35.5 22.4624 33.0376 20 30 20C26.9624 20 24.5 22.4624 24.5 25.5C24.5 28.5376 26.9624 31 30 31Z" stroke="#2A2A2C" stroke-linecap="round" stroke-linejoin="round"/>
<path d="M37.5 33L34 29.5" stroke="#2A2A2C" stroke-linecap="round" stroke-linejoin="round"/>
</g>
<path d="M69.392 23.448C69.3333 23.544 69.272 23.616 69.208 23.664C69.144 23.7067 69.064 23.728 68.968 23.728C68.8667 23.728 68.752 23.6853 68.624 23.6C68.5013 23.5147 68.3467 23.4213 68.16 23.32C67.9787 23.2133 67.7627 23.1173 67.512 23.032C67.2613 22.9413 66.9627 22.896 66.616 22.896C66.296 22.896 66.0133 22.936 65.768 23.016C65.528 23.096 65.3253 23.208 65.16 23.352C64.9947 23.496 64.8693 23.6667 64.784 23.864C64.704 24.056 64.664 24.2667 64.664 24.496C64.664 24.7893 64.7413 25.0347 64.896 25.232C65.0507 25.424 65.2533 25.5893 65.504 25.728C65.76 25.8667 66.0507 25.9893 66.376 26.096C66.7013 26.1973 67.032 26.3067 67.368 26.424C67.7093 26.5413 68.0427 26.6747 68.368 26.824C68.6933 26.9733 68.9813 27.1627 69.232 27.392C69.488 27.6213 69.6933 27.9013 69.848 28.232C70.0027 28.5627 70.08 28.9653 70.08 29.44C70.08 29.952 69.992 30.432 69.816 30.88C69.64 31.328 69.384 31.72 69.048 32.056C68.7173 32.3867 68.3067 32.648 67.816 32.84C67.3307 33.032 66.776 33.128 66.152 33.128C65.784 33.128 65.424 33.0907 65.072 33.016C64.7253 32.9467 64.392 32.848 64.072 32.72C63.7573 32.5867 63.4613 32.4267 63.184 32.24C62.9067 32.0533 62.6587 31.8453 62.44 31.616L62.984 30.72C63.032 30.6453 63.0933 30.5867 63.168 30.544C63.2427 30.5013 63.3253 30.48 63.416 30.48C63.5387 30.48 63.6747 30.5387 63.824 30.656C63.9733 30.768 64.152 30.8933 64.36 31.032C64.5733 31.1653 64.8293 31.2907 65.128 31.408C65.4267 31.52 65.784 31.576 66.2 31.576C66.8773 31.576 67.4 31.4107 67.768 31.08C68.1413 30.7493 68.328 30.2933 68.328 29.712C68.328 29.3867 68.2507 29.1227 68.096 28.92C67.9413 28.712 67.736 28.5387 67.48 28.4C67.2293 28.2613 66.9413 28.144 66.616 28.048C66.2907 27.952 65.96 27.8507 65.624 27.744C65.288 27.632 64.9573 27.504 64.632 27.36C64.3067 27.2107 64.016 27.0187 63.76 26.784C63.5093 26.544 63.3067 26.2507 63.152 25.904C62.9973 25.552 62.92 25.1147 62.92 24.592C62.92 24.176 63 23.7733 63.16 23.384C63.3253 22.9947 63.5627 22.6507 63.872 22.352C64.1867 22.048 64.5733 21.8053 65.032 21.624C65.4907 21.4427 66.0133 21.352 66.6 21.352C67.2613 21.352 67.8667 21.456 68.416 21.664C68.9707 21.872 69.448 22.168 69.848 22.552L69.392 23.448ZM77.1031 28C77.1031 27.712 77.0605 27.4453 76.9751 27.2C76.8951 26.9493 76.7751 26.7333 76.6151 26.552C76.4551 26.3653 76.2551 26.2213 76.0151 26.12C75.7805 26.0133 75.5085 25.96 75.1991 25.96C74.5751 25.96 74.0845 26.1387 73.7271 26.496C73.3698 26.8533 73.1431 27.3547 73.0471 28H77.1031ZM72.9991 29.056C73.0205 29.52 73.0925 29.9227 73.2151 30.264C73.3378 30.6 73.5005 30.88 73.7031 31.104C73.9111 31.328 74.1565 31.496 74.4391 31.608C74.7271 31.7147 75.0471 31.768 75.3991 31.768C75.7351 31.768 76.0258 31.7307 76.2711 31.656C76.5165 31.576 76.7298 31.4907 76.9111 31.4C77.0925 31.304 77.2471 31.2187 77.3751 31.144C77.5031 31.064 77.6205 31.024 77.7271 31.024C77.8658 31.024 77.9725 31.0773 78.0471 31.184L78.5351 31.816C78.3325 32.056 78.1031 32.2587 77.8471 32.424C77.5911 32.5893 77.3191 32.7253 77.0311 32.832C76.7431 32.9333 76.4471 33.0053 76.1431 33.048C75.8391 33.096 75.5431 33.12 75.2551 33.12C74.6898 33.12 74.1645 33.0267 73.6791 32.84C73.1991 32.648 72.7805 32.368 72.4231 32C72.0711 31.632 71.7938 31.176 71.5911 30.632C71.3938 30.088 71.2951 29.4613 71.2951 28.752C71.2951 28.1867 71.3831 27.6587 71.5591 27.168C71.7405 26.6773 71.9965 26.2507 72.3271 25.888C72.6631 25.5253 73.0685 25.24 73.5431 25.032C74.0231 24.8187 74.5645 24.712 75.1671 24.712C75.6685 24.712 76.1325 24.7947 76.5591 24.96C76.9858 25.12 77.3538 25.3573 77.6631 25.672C77.9725 25.9867 78.2125 26.3733 78.3831 26.832C78.5591 27.2853 78.6471 27.8027 78.6471 28.384C78.6471 28.6507 78.6178 28.8293 78.5591 28.92C78.5005 29.0107 78.3938 29.056 78.2391 29.056H72.9991ZM84.6111 29.432C83.9978 29.4533 83.4805 29.504 83.0591 29.584C82.6378 29.6587 82.2965 29.7573 82.0351 29.88C81.7738 29.9973 81.5845 30.1387 81.4671 30.304C81.3551 30.4693 81.2991 30.6507 81.2991 30.848C81.2991 31.04 81.3285 31.2053 81.3871 31.344C81.4511 31.4773 81.5365 31.5893 81.6431 31.68C81.7551 31.7653 81.8831 31.8293 82.0271 31.872C82.1765 31.9093 82.3391 31.928 82.5151 31.928C82.9631 31.928 83.3471 31.8453 83.6671 31.68C83.9925 31.5093 84.3071 31.264 84.6111 30.944V29.432ZM80.0511 25.976C80.9738 25.1173 82.0725 24.688 83.3471 24.688C83.8165 24.688 84.2325 24.7653 84.5951 24.92C84.9631 25.0693 85.2698 25.2827 85.5151 25.56C85.7658 25.8373 85.9551 26.168 86.0831 26.552C86.2165 26.9307 86.2831 27.352 86.2831 27.816V33H85.5151C85.3498 33 85.2245 32.976 85.1391 32.928C85.0538 32.8747 84.9818 32.7707 84.9231 32.616L84.7551 31.952C84.5471 32.1387 84.3418 32.3067 84.1391 32.456C83.9365 32.6 83.7258 32.7227 83.5071 32.824C83.2938 32.9253 83.0618 33 82.8111 33.048C82.5658 33.1013 82.2938 33.128 81.9951 33.128C81.6645 33.128 81.3551 33.0827 81.0671 32.992C80.7845 32.9013 80.5391 32.7653 80.3311 32.584C80.1231 32.3973 79.9578 32.168 79.8351 31.896C79.7178 31.624 79.6591 31.304 79.6591 30.936C79.6591 30.6213 79.7418 30.3147 79.9071 30.016C80.0778 29.7173 80.3551 29.4507 80.7391 29.216C81.1285 28.976 81.6378 28.7787 82.2671 28.624C82.9018 28.4693 83.6831 28.3813 84.6111 28.36V27.816C84.6111 27.2293 84.4858 26.792 84.2351 26.504C83.9845 26.216 83.6165 26.072 83.1311 26.072C82.8005 26.072 82.5231 26.1147 82.2991 26.2C82.0751 26.28 81.8805 26.368 81.7151 26.464C81.5498 26.56 81.4031 26.6507 81.2751 26.736C81.1471 26.816 81.0111 26.856 80.8671 26.856C80.7498 26.856 80.6485 26.8267 80.5631 26.768C80.4831 26.704 80.4165 26.6267 80.3631 26.536L80.0511 25.976ZM89.922 26.352C90.178 25.8347 90.4873 25.4293 90.85 25.136C91.2127 24.8373 91.6473 24.688 92.154 24.688C92.33 24.688 92.4953 24.7093 92.65 24.752C92.8047 24.7893 92.9433 24.848 93.066 24.928L92.946 26.224C92.9247 26.3147 92.89 26.3787 92.842 26.416C92.7993 26.448 92.7407 26.464 92.666 26.464C92.586 26.464 92.4713 26.4507 92.322 26.424C92.1727 26.392 92.0153 26.376 91.85 26.376C91.61 26.376 91.3967 26.4107 91.21 26.48C91.0287 26.5493 90.8633 26.6507 90.714 26.784C90.57 26.9173 90.442 27.08 90.33 27.272C90.218 27.464 90.114 27.6827 90.018 27.928V33H88.298V24.84H89.298C89.4793 24.84 89.6047 24.8747 89.674 24.944C89.7433 25.008 89.7913 25.1227 89.818 25.288L89.922 26.352ZM99.691 26.44C99.6377 26.5093 99.587 26.5627 99.539 26.6C99.491 26.6373 99.4217 26.656 99.331 26.656C99.2403 26.656 99.1443 26.624 99.043 26.56C98.947 26.496 98.8297 26.4267 98.691 26.352C98.5577 26.272 98.395 26.2 98.203 26.136C98.011 26.072 97.771 26.04 97.483 26.04C97.1097 26.04 96.7817 26.1067 96.499 26.24C96.2217 26.3733 95.987 26.5653 95.795 26.816C95.6083 27.0613 95.467 27.3627 95.371 27.72C95.2803 28.072 95.235 28.4693 95.235 28.912C95.235 29.3707 95.2857 29.7787 95.387 30.136C95.4883 30.4933 95.6323 30.7947 95.819 31.04C96.011 31.2853 96.2403 31.472 96.507 31.6C96.779 31.728 97.083 31.792 97.419 31.792C97.7497 31.792 98.019 31.752 98.227 31.672C98.435 31.592 98.6083 31.504 98.747 31.408C98.8857 31.312 99.003 31.224 99.099 31.144C99.2003 31.064 99.307 31.024 99.419 31.024C99.5577 31.024 99.6643 31.0773 99.739 31.184L100.227 31.816C100.03 32.056 99.811 32.2587 99.571 32.424C99.331 32.5893 99.0777 32.7253 98.811 32.832C98.5443 32.9333 98.267 33.0053 97.979 33.048C97.691 33.096 97.4003 33.12 97.107 33.12C96.6003 33.12 96.1257 33.0267 95.683 32.84C95.2457 32.648 94.8617 32.3733 94.531 32.016C94.2057 31.6533 93.947 31.2133 93.755 30.696C93.5683 30.1733 93.475 29.5787 93.475 28.912C93.475 28.3093 93.5603 27.752 93.731 27.24C93.9017 26.7227 94.1497 26.2773 94.475 25.904C94.8057 25.5307 95.2137 25.24 95.699 25.032C96.1843 24.8187 96.7443 24.712 97.379 24.712C97.971 24.712 98.491 24.808 98.939 25C99.3923 25.192 99.795 25.464 100.147 25.816L99.691 26.44ZM103.331 25.808C103.667 25.4773 104.035 25.2133 104.435 25.016C104.835 24.8133 105.301 24.712 105.835 24.712C106.283 24.712 106.675 24.7867 107.011 24.936C107.352 25.0853 107.637 25.296 107.867 25.568C108.101 25.84 108.277 26.168 108.395 26.552C108.512 26.9307 108.571 27.3493 108.571 27.808V33H106.859V27.808C106.859 27.2587 106.731 26.832 106.475 26.528C106.224 26.224 105.84 26.072 105.323 26.072C104.939 26.072 104.581 26.16 104.251 26.336C103.925 26.512 103.619 26.752 103.331 27.056V33H101.611V21.16H103.331V25.808Z" fill="#4F4F4F"/>
<defs>
<clipPath id="clip0_384_3916">
<rect width="14" height="14" fill="white" transform="translate(24 19.5)"/>
</clipPath>
</defs>
</svg>
