<svg width="320" height="54" viewBox="0 0 320 54" fill="none" xmlns="http://www.w3.org/2000/svg">
<g clip-path="url(#clip0_606_1869)">
<path d="M64.9657 19.3467L65.7029 17.4438C65.8272 17.1216 66.0459 16.8445 66.3304 16.6487C66.6149 16.453 66.9519 16.3477 67.2972 16.3467H68.7029C69.0482 16.3477 69.3852 16.453 69.6697 16.6487C69.9541 16.8445 70.1729 17.1216 70.2972 17.4438L71.0343 19.3467L73.5371 20.7867L75.56 20.4781C75.8968 20.4324 76.2397 20.4878 76.545 20.6374C76.8501 20.787 77.104 21.0239 77.2743 21.3181L77.96 22.5181C78.1357 22.817 78.2168 23.1621 78.1923 23.508C78.1677 23.8538 78.039 24.1841 77.8228 24.4552L76.5714 26.0495V28.9295L77.8571 30.5238C78.0733 30.795 78.202 31.1253 78.2265 31.4711C78.2511 31.8169 78.17 32.1621 77.9943 32.461L77.3085 33.661C77.1383 33.9551 76.8844 34.192 76.5793 34.3417C76.274 34.4912 75.9311 34.5467 75.5943 34.501L73.5714 34.1924L71.0686 35.6324L70.3315 37.5352C70.2071 37.8574 69.9884 38.1346 69.7039 38.3303C69.4195 38.5261 69.0825 38.6314 68.7372 38.6324H67.2972C66.9519 38.6314 66.6149 38.5261 66.3304 38.3303C66.0459 38.1346 65.8272 37.8574 65.7029 37.5352L64.9657 35.6324L62.4629 34.1924L60.44 34.501C60.1032 34.5467 59.7604 34.4912 59.4551 34.3417C59.1499 34.192 58.896 33.9551 58.7257 33.661L58.04 32.461C57.8643 32.1621 57.7834 31.8169 57.8079 31.4711C57.8323 31.1253 57.9611 30.795 58.1772 30.5238L59.4286 28.9295V26.0495L58.1429 24.4552C57.9268 24.1841 57.798 23.8538 57.7736 23.508C57.7491 23.1621 57.83 22.817 58.0057 22.5181L58.6915 21.3181C58.8617 21.0239 59.1156 20.787 59.4209 20.6374C59.7261 20.4878 60.0689 20.4324 60.4057 20.4781L62.4286 20.7867L64.9657 19.3467ZM64.5715 27.4895C64.5715 28.1676 64.7725 28.8305 65.1493 29.3943C65.526 29.9582 66.0615 30.3976 66.688 30.6571C67.3145 30.9166 68.0038 30.9845 68.6689 30.8522C69.334 30.7199 69.9449 30.3934 70.4244 29.9139C70.9039 29.4344 71.2304 28.8235 71.3627 28.1584C71.495 27.4933 71.4271 26.804 71.1676 26.1775C70.9081 25.551 70.4687 25.0155 69.9048 24.6388C69.341 24.262 68.6781 24.061 68 24.061C67.0907 24.061 66.2187 24.4222 65.5757 25.0652C64.9327 25.7081 64.5715 26.5802 64.5715 27.4895Z" stroke="#2A2A2C" stroke-width="1.5" stroke-linecap="round" stroke-linejoin="round"/>
</g>
<path d="M102.19 34.2495C101.323 34.2495 100.527 34.0962 99.8 33.7895C99.0733 33.4762 98.4867 33.0129 98.04 32.3995C97.6 31.7862 97.37 31.0195 97.35 30.0995H99.21C99.21 30.6529 99.3433 31.1062 99.61 31.4595C99.8833 31.8129 100.243 32.0762 100.69 32.2495C101.137 32.4162 101.63 32.4995 102.17 32.4995C102.717 32.4995 103.2 32.4162 103.62 32.2495C104.04 32.0829 104.363 31.8595 104.59 31.5795C104.823 31.2995 104.94 30.9795 104.94 30.6195C104.94 30.1329 104.79 29.7429 104.49 29.4495C104.19 29.1495 103.733 28.8962 103.12 28.6895L100.75 27.8095C99.73 27.4295 98.9533 26.9929 98.42 26.4995C97.8867 25.9995 97.62 25.3062 97.62 24.4195C97.62 23.4129 98.0133 22.5962 98.8 21.9695C99.5867 21.3362 100.693 21.0195 102.12 21.0195C103.473 21.0195 104.523 21.3329 105.27 21.9595C106.023 22.5862 106.453 23.4395 106.56 24.5195H104.69C104.597 23.9729 104.34 23.5395 103.92 23.2195C103.507 22.8995 102.907 22.7395 102.12 22.7395C101.36 22.7395 100.767 22.9062 100.34 23.2395C99.9133 23.5662 99.7 23.9795 99.7 24.4795C99.7 24.8929 99.8333 25.2229 100.1 25.4695C100.373 25.7162 100.797 25.9395 101.37 26.1395L104.07 27.1295C104.997 27.4562 105.72 27.8962 106.24 28.4495C106.76 29.0029 107.02 29.7062 107.02 30.5595C107.02 31.2795 106.833 31.9162 106.46 32.4695C106.087 33.0229 105.54 33.4595 104.82 33.7795C104.1 34.0929 103.223 34.2495 102.19 34.2495ZM113.763 34.2495C112.937 34.2495 112.19 34.0362 111.523 33.6095C110.857 33.1829 110.327 32.5895 109.933 31.8295C109.547 31.0695 109.353 30.1895 109.353 29.1895C109.353 28.1295 109.547 27.2229 109.933 26.4695C110.32 25.7095 110.847 25.1262 111.513 24.7195C112.18 24.3129 112.93 24.1095 113.763 24.1095C114.51 24.1095 115.15 24.2629 115.683 24.5695C116.217 24.8695 116.647 25.2762 116.973 25.7895C117.3 26.2962 117.523 26.8729 117.643 27.5195C117.77 28.1662 117.793 28.8329 117.713 29.5195H110.873V28.4195H116.413L115.953 28.7195C115.973 28.3595 115.953 27.9995 115.893 27.6395C115.84 27.2795 115.733 26.9495 115.573 26.6495C115.413 26.3429 115.187 26.0995 114.893 25.9195C114.607 25.7329 114.24 25.6395 113.793 25.6395C113.233 25.6395 112.763 25.7795 112.383 26.0595C112.01 26.3395 111.727 26.7162 111.533 27.1895C111.34 27.6562 111.243 28.1695 111.243 28.7295V29.4995C111.243 30.1195 111.337 30.6695 111.523 31.1495C111.71 31.6295 111.987 32.0095 112.353 32.2895C112.727 32.5629 113.197 32.6995 113.763 32.6995C114.317 32.6995 114.773 32.5695 115.133 32.3095C115.5 32.0495 115.727 31.6595 115.813 31.1395H117.753C117.653 31.7662 117.423 32.3129 117.063 32.7795C116.703 33.2462 116.24 33.6095 115.673 33.8695C115.113 34.1229 114.477 34.2495 113.763 34.2495ZM123.813 34.2495C123.267 34.2495 122.773 34.1462 122.333 33.9395C121.893 33.7329 121.543 33.4229 121.283 33.0095C121.03 32.5895 120.903 32.0629 120.903 31.4295V21.7495H122.793V31.3695C122.793 32.2762 123.217 32.7295 124.063 32.7295C124.323 32.7295 124.577 32.7029 124.823 32.6495C125.07 32.5895 125.35 32.5029 125.663 32.3895L125.933 33.7395C125.58 33.8862 125.23 34.0062 124.883 34.0995C124.543 34.1995 124.187 34.2495 123.813 34.2495ZM119.433 25.6595V24.3695H125.643V25.6595H119.433ZM131.489 34.2495C130.943 34.2495 130.449 34.1462 130.009 33.9395C129.569 33.7329 129.219 33.4229 128.959 33.0095C128.706 32.5895 128.579 32.0629 128.579 31.4295V21.7495H130.469V31.3695C130.469 32.2762 130.893 32.7295 131.739 32.7295C131.999 32.7295 132.253 32.7029 132.499 32.6495C132.746 32.5895 133.026 32.5029 133.339 32.3895L133.609 33.7395C133.256 33.8862 132.906 34.0062 132.559 34.0995C132.219 34.1995 131.863 34.2495 131.489 34.2495ZM127.109 25.6595V24.3695H133.319V25.6595H127.109ZM137.175 22.3195C136.795 22.3195 136.495 22.2162 136.275 22.0095C136.062 21.7962 135.955 21.5095 135.955 21.1495C135.955 20.8029 136.062 20.5295 136.275 20.3295C136.495 20.1229 136.795 20.0195 137.175 20.0195C137.548 20.0195 137.842 20.1229 138.055 20.3295C138.275 20.5295 138.385 20.8029 138.385 21.1495C138.385 21.5095 138.275 21.7962 138.055 22.0095C137.842 22.2162 137.548 22.3195 137.175 22.3195ZM136.225 33.9895V24.3395H138.125V33.9895H136.225ZM149.026 33.9895V28.3495C149.026 27.5162 148.826 26.8862 148.426 26.4595C148.033 26.0262 147.499 25.8095 146.826 25.8095C146.293 25.8095 145.826 25.9562 145.426 26.2495C145.033 26.5362 144.726 26.9595 144.506 27.5195C144.293 28.0729 144.186 28.7495 144.186 29.5495H143.506C143.506 28.3695 143.656 27.3762 143.956 26.5695C144.263 25.7629 144.699 25.1529 145.266 24.7395C145.833 24.3195 146.513 24.1095 147.306 24.1095C148.079 24.1095 148.733 24.2829 149.266 24.6295C149.806 24.9762 150.216 25.4695 150.496 26.1095C150.776 26.7429 150.916 27.4895 150.916 28.3495V33.9895H149.026ZM142.286 33.9895V24.3695H143.936L144.186 26.4495V33.9895H142.286ZM158.072 38.9495C157.032 38.9495 156.135 38.8062 155.382 38.5195C154.635 38.2329 154.059 37.8495 153.652 37.3695C153.245 36.8895 153.042 36.3662 153.042 35.7995C153.042 35.0795 153.305 34.5262 153.832 34.1395C154.359 33.7595 155.029 33.5695 155.842 33.5695L157.072 34.1495C156.379 34.1495 155.842 34.2895 155.462 34.5695C155.089 34.8495 154.902 35.2295 154.902 35.7095C154.902 36.2095 155.175 36.6195 155.722 36.9395C156.269 37.2662 157.052 37.4295 158.072 37.4295C158.812 37.4295 159.462 37.3195 160.022 37.0995C160.582 36.8862 161.015 36.6029 161.322 36.2495C161.629 35.9029 161.782 35.5295 161.782 35.1295C161.782 34.8562 161.682 34.6229 161.482 34.4295C161.289 34.2429 160.992 34.1495 160.592 34.1495H157.072C156.419 34.1495 155.842 34.0495 155.342 33.8495C154.849 33.6429 154.462 33.3729 154.182 33.0395C153.902 32.7062 153.762 32.3362 153.762 31.9295C153.762 31.5295 153.875 31.1862 154.102 30.8995C154.329 30.6062 154.629 30.3862 155.002 30.2395C155.375 30.0862 155.785 30.0095 156.232 30.0095L156.662 30.6695C156.469 30.6695 156.275 30.7129 156.082 30.7995C155.889 30.8795 155.729 31.0029 155.602 31.1695C155.475 31.3362 155.412 31.5429 155.412 31.7895C155.412 32.0762 155.532 32.3162 155.772 32.5095C156.019 32.6962 156.452 32.7895 157.072 32.7895H160.592C161.552 32.7895 162.305 32.9795 162.852 33.3595C163.399 33.7395 163.672 34.2929 163.672 35.0195C163.672 35.6795 163.445 36.3095 162.992 36.9095C162.539 37.5095 161.892 37.9995 161.052 38.3795C160.219 38.7595 159.225 38.9495 158.072 38.9495ZM158.282 31.0995C157.535 31.0995 156.855 30.9562 156.242 30.6695C155.635 30.3762 155.152 29.9695 154.792 29.4495C154.432 28.9229 154.252 28.3095 154.252 27.6095C154.252 26.9029 154.432 26.2895 154.792 25.7695C155.152 25.2429 155.635 24.8362 156.242 24.5495C156.855 24.2562 157.535 24.1095 158.282 24.1095C159.009 24.1095 159.672 24.2562 160.272 24.5495C160.879 24.8362 161.362 25.2429 161.722 25.7695C162.089 26.2895 162.272 26.9029 162.272 27.6095C162.272 28.3095 162.089 28.9229 161.722 29.4495C161.362 29.9695 160.879 30.3762 160.272 30.6695C159.672 30.9562 159.009 31.0995 158.282 31.0995ZM158.282 29.7595C158.969 29.7595 159.492 29.5562 159.852 29.1495C160.219 28.7362 160.402 28.2229 160.402 27.6095C160.402 26.9695 160.219 26.4529 159.852 26.0595C159.492 25.6662 158.969 25.4695 158.282 25.4695C157.609 25.4695 157.082 25.6662 156.702 26.0595C156.329 26.4529 156.142 26.9695 156.142 27.6095C156.142 28.2229 156.329 28.7362 156.702 29.1495C157.082 29.5562 157.609 29.7595 158.282 29.7595ZM161.552 25.6495L160.662 25.2195C160.662 24.6462 160.782 24.1462 161.022 23.7195C161.262 23.2929 161.595 22.9595 162.022 22.7195C162.449 22.4795 162.939 22.3595 163.492 22.3595L163.372 24.2095C162.779 24.2095 162.325 24.3262 162.012 24.5595C161.705 24.7929 161.552 25.1562 161.552 25.6495ZM169.497 34.2495C168.564 34.2495 167.777 34.1195 167.137 33.8595C166.497 33.5929 166.007 33.2262 165.667 32.7595C165.334 32.2862 165.161 31.7329 165.147 31.0995H166.937C166.964 31.6529 167.184 32.0629 167.597 32.3295C168.017 32.5962 168.584 32.7295 169.297 32.7295C169.677 32.7295 170.021 32.6695 170.327 32.5495C170.641 32.4295 170.887 32.2662 171.067 32.0595C171.254 31.8529 171.347 31.6195 171.347 31.3595C171.347 31.0329 171.227 30.7762 170.987 30.5895C170.747 30.3962 170.361 30.2262 169.827 30.0795L167.857 29.4095C167.071 29.1429 166.467 28.7895 166.047 28.3495C165.627 27.9029 165.417 27.3695 165.417 26.7495C165.417 25.9562 165.771 25.3195 166.477 24.8395C167.184 24.3529 168.121 24.1095 169.287 24.1095C170.494 24.1095 171.424 24.3662 172.077 24.8795C172.737 25.3862 173.081 26.0229 173.107 26.7895H171.277C171.231 26.4095 171.041 26.1195 170.707 25.9195C170.381 25.7129 169.907 25.6095 169.287 25.6095C168.707 25.6095 168.251 25.7362 167.917 25.9895C167.591 26.2429 167.427 26.5295 167.427 26.8495C167.427 27.4229 167.921 27.8495 168.907 28.1295L170.977 28.8595C171.764 29.1129 172.371 29.4395 172.797 29.8395C173.224 30.2395 173.437 30.7462 173.437 31.3595C173.437 31.8529 173.274 32.3195 172.947 32.7595C172.621 33.1995 172.161 33.5595 171.567 33.8395C170.981 34.1129 170.291 34.2495 169.497 34.2495Z" fill="#505153"/>
<defs>
<clipPath id="clip0_606_1869">
<rect width="24" height="24" fill="white" transform="translate(56 15.4895)"/>
</clipPath>
</defs>
</svg>
