<svg width="324" height="54" viewBox="0 0 324 54" fill="none" xmlns="http://www.w3.org/2000/svg">
<g clip-path="url(#clip0_606_1880)">
<path d="M74.2858 33.4895V36.9181C74.2858 37.3727 74.1051 37.8088 73.7837 38.1303C73.4622 38.4517 73.0261 38.6324 72.5715 38.6324H60.5715C60.1168 38.6324 59.6808 38.4517 59.3593 38.1303C59.0378 37.8088 58.8572 37.3727 58.8572 36.9181V18.061C58.8572 17.6063 59.0378 17.1703 59.3593 16.8488C59.6808 16.5273 60.1168 16.3467 60.5715 16.3467H72.5715C73.0261 16.3467 73.4622 16.5273 73.7837 16.8488C74.1051 17.1703 74.2858 17.6063 74.2858 18.061V21.4895" stroke="#FF0101" stroke-width="1.5" stroke-linecap="round" stroke-linejoin="round"/>
<path d="M81.1429 27.4895H67.4286" stroke="#FF0101" stroke-width="1.5" stroke-linecap="round" stroke-linejoin="round"/>
<path d="M70.8572 24.061L67.4286 27.4895L70.8572 30.9181" stroke="#FF0101" stroke-width="1.5" stroke-linecap="round" stroke-linejoin="round"/>
</g>
<path d="M103.85 21.2495V32.3295H109.34V33.9895H101.95V21.2495H103.85ZM115.14 34.2495C114.267 34.2495 113.484 34.0595 112.79 33.6795C112.104 33.2995 111.56 32.7329 111.16 31.9795C110.76 31.2262 110.56 30.2962 110.56 29.1895C110.56 28.0629 110.76 27.1262 111.16 26.3795C111.56 25.6262 112.104 25.0595 112.79 24.6795C113.484 24.2995 114.267 24.1095 115.14 24.1095C116 24.1095 116.774 24.2995 117.46 24.6795C118.147 25.0595 118.687 25.6262 119.08 26.3795C119.48 27.1262 119.68 28.0629 119.68 29.1895C119.68 30.2962 119.48 31.2262 119.08 31.9795C118.687 32.7329 118.147 33.2995 117.46 33.6795C116.774 34.0595 116 34.2495 115.14 34.2495ZM115.08 32.5895C115.634 32.5895 116.11 32.4562 116.51 32.1895C116.917 31.9229 117.227 31.5362 117.44 31.0295C117.66 30.5162 117.77 29.9029 117.77 29.1895C117.77 28.0962 117.547 27.2495 117.1 26.6495C116.66 26.0495 116.024 25.7495 115.19 25.7495C114.63 25.7495 114.147 25.8862 113.74 26.1595C113.34 26.4262 113.03 26.8162 112.81 27.3295C112.597 27.8362 112.49 28.4562 112.49 29.1895C112.49 30.2629 112.714 31.0995 113.16 31.6995C113.607 32.2929 114.247 32.5895 115.08 32.5895ZM126.154 38.9495C125.114 38.9495 124.217 38.8062 123.464 38.5195C122.717 38.2329 122.141 37.8495 121.734 37.3695C121.327 36.8895 121.124 36.3662 121.124 35.7995C121.124 35.0795 121.387 34.5262 121.914 34.1395C122.441 33.7595 123.111 33.5695 123.924 33.5695L125.154 34.1495C124.461 34.1495 123.924 34.2895 123.544 34.5695C123.171 34.8495 122.984 35.2295 122.984 35.7095C122.984 36.2095 123.257 36.6195 123.804 36.9395C124.351 37.2662 125.134 37.4295 126.154 37.4295C126.894 37.4295 127.544 37.3195 128.104 37.0995C128.664 36.8862 129.097 36.6029 129.404 36.2495C129.711 35.9029 129.864 35.5295 129.864 35.1295C129.864 34.8562 129.764 34.6229 129.564 34.4295C129.371 34.2429 129.074 34.1495 128.674 34.1495H125.154C124.501 34.1495 123.924 34.0495 123.424 33.8495C122.931 33.6429 122.544 33.3729 122.264 33.0395C121.984 32.7062 121.844 32.3362 121.844 31.9295C121.844 31.5295 121.957 31.1862 122.184 30.8995C122.411 30.6062 122.711 30.3862 123.084 30.2395C123.457 30.0862 123.867 30.0095 124.314 30.0095L124.744 30.6695C124.551 30.6695 124.357 30.7129 124.164 30.7995C123.971 30.8795 123.811 31.0029 123.684 31.1695C123.557 31.3362 123.494 31.5429 123.494 31.7895C123.494 32.0762 123.614 32.3162 123.854 32.5095C124.101 32.6962 124.534 32.7895 125.154 32.7895H128.674C129.634 32.7895 130.387 32.9795 130.934 33.3595C131.481 33.7395 131.754 34.2929 131.754 35.0195C131.754 35.6795 131.527 36.3095 131.074 36.9095C130.621 37.5095 129.974 37.9995 129.134 38.3795C128.301 38.7595 127.307 38.9495 126.154 38.9495ZM126.364 31.0995C125.617 31.0995 124.937 30.9562 124.324 30.6695C123.717 30.3762 123.234 29.9695 122.874 29.4495C122.514 28.9229 122.334 28.3095 122.334 27.6095C122.334 26.9029 122.514 26.2895 122.874 25.7695C123.234 25.2429 123.717 24.8362 124.324 24.5495C124.937 24.2562 125.617 24.1095 126.364 24.1095C127.091 24.1095 127.754 24.2562 128.354 24.5495C128.961 24.8362 129.444 25.2429 129.804 25.7695C130.171 26.2895 130.354 26.9029 130.354 27.6095C130.354 28.3095 130.171 28.9229 129.804 29.4495C129.444 29.9695 128.961 30.3762 128.354 30.6695C127.754 30.9562 127.091 31.0995 126.364 31.0995ZM126.364 29.7595C127.051 29.7595 127.574 29.5562 127.934 29.1495C128.301 28.7362 128.484 28.2229 128.484 27.6095C128.484 26.9695 128.301 26.4529 127.934 26.0595C127.574 25.6662 127.051 25.4695 126.364 25.4695C125.691 25.4695 125.164 25.6662 124.784 26.0595C124.411 26.4529 124.224 26.9695 124.224 27.6095C124.224 28.2229 124.411 28.7362 124.784 29.1495C125.164 29.5562 125.691 29.7595 126.364 29.7595ZM129.634 25.6495L128.744 25.2195C128.744 24.6462 128.864 24.1462 129.104 23.7195C129.344 23.2929 129.677 22.9595 130.104 22.7195C130.531 22.4795 131.021 22.3595 131.574 22.3595L131.454 24.2095C130.861 24.2095 130.407 24.3262 130.094 24.5595C129.787 24.7929 129.634 25.1562 129.634 25.6495ZM142.562 34.2495C141.689 34.2495 140.906 34.0595 140.212 33.6795C139.526 33.2995 138.982 32.7329 138.582 31.9795C138.182 31.2262 137.982 30.2962 137.982 29.1895C137.982 28.0629 138.182 27.1262 138.582 26.3795C138.982 25.6262 139.526 25.0595 140.212 24.6795C140.906 24.2995 141.689 24.1095 142.562 24.1095C143.422 24.1095 144.196 24.2995 144.882 24.6795C145.569 25.0595 146.109 25.6262 146.502 26.3795C146.902 27.1262 147.102 28.0629 147.102 29.1895C147.102 30.2962 146.902 31.2262 146.502 31.9795C146.109 32.7329 145.569 33.2995 144.882 33.6795C144.196 34.0595 143.422 34.2495 142.562 34.2495ZM142.502 32.5895C143.056 32.5895 143.532 32.4562 143.932 32.1895C144.339 31.9229 144.649 31.5362 144.862 31.0295C145.082 30.5162 145.192 29.9029 145.192 29.1895C145.192 28.0962 144.969 27.2495 144.522 26.6495C144.082 26.0495 143.446 25.7495 142.612 25.7495C142.052 25.7495 141.569 25.8862 141.162 26.1595C140.762 26.4262 140.452 26.8162 140.232 27.3295C140.019 27.8362 139.912 28.4562 139.912 29.1895C139.912 30.2629 140.136 31.0995 140.582 31.6995C141.029 32.2929 141.669 32.5895 142.502 32.5895ZM156.516 24.3395H158.426V33.9895H156.516V24.3395ZM149.796 24.3395H151.696V30.2995C151.696 31.0262 151.873 31.5762 152.226 31.9495C152.586 32.3229 153.089 32.5095 153.736 32.5095C154.283 32.5095 154.763 32.3662 155.176 32.0795C155.596 31.7929 155.923 31.3862 156.156 30.8595C156.396 30.3329 156.516 29.7095 156.516 28.9895H157.126C157.126 30.1162 156.973 31.0629 156.666 31.8295C156.359 32.5962 155.929 33.1795 155.376 33.5795C154.823 33.9729 154.176 34.1695 153.436 34.1695C152.729 34.1695 152.099 34.0395 151.546 33.7795C150.999 33.5195 150.569 33.1195 150.256 32.5795C149.949 32.0329 149.796 31.3295 149.796 30.4695V24.3395ZM165.411 34.2495C164.864 34.2495 164.371 34.1462 163.931 33.9395C163.491 33.7329 163.141 33.4229 162.881 33.0095C162.628 32.5895 162.501 32.0629 162.501 31.4295V21.7495H164.391V31.3695C164.391 32.2762 164.814 32.7295 165.661 32.7295C165.921 32.7295 166.174 32.7029 166.421 32.6495C166.668 32.5895 166.948 32.5029 167.261 32.3895L167.531 33.7395C167.178 33.8862 166.828 34.0062 166.481 34.0995C166.141 34.1995 165.784 34.2495 165.411 34.2495ZM161.031 25.6595V24.3695H167.241V25.6595H161.031Z" fill="#505153"/>
<defs>
<clipPath id="clip0_606_1880">
<rect width="24" height="24" fill="white" transform="translate(58 15.4895)"/>
</clipPath>
</defs>
</svg>
